<svg xmlns="http://www.w3.org/2000/svg" width="1920" height="1080" viewBox="0 0 1920 1080" fill="none">
  <defs>
    <radialGradient id="wash" cx="50%" cy="42%" r="70%">
      <stop offset="0" stop-color="#15385b" stop-opacity=".36"/>
      <stop offset="1" stop-color="#071326" stop-opacity="0"/>
    </radialGradient>
    <path id="ridge" d="M0-224C69-256 163-222 207-158c42 61 24 131 64 180 43 53 131 74 113 153-19 80-130 87-202 139-63 45-98 131-176 125-79-5-101-96-169-139-69-45-177-48-191-125-15-80 81-135 99-213C-238-117-74-190 0-224Z"/>
    <path id="ridge-small" d="M0-112c55-19 113 18 122 67 8 43-26 73-20 112 8 44 65 72 43 110-24 41-87 24-132 43-42 18-72 69-117 58-45-12-41-71-70-107-30-38-91-60-81-104 10-45 75-50 107-85 34-36 87-78 148-94Z"/>
  </defs>
  <path fill="url(#wash)" d="M0 0h1920v1080H0z"/>
  <g stroke="#78c8ff" stroke-width="2" opacity=".47">
    <g transform="translate(350 270) rotate(-15)">
      <use href="#ridge" transform="scale(1.42)" opacity=".26"/><use href="#ridge" transform="scale(1.3)" opacity=".34"/>
      <use href="#ridge" transform="scale(1.18)" opacity=".43"/><use href="#ridge" transform="scale(1.06)" opacity=".52"/>
      <use href="#ridge" transform="scale(.94)" opacity=".62"/><use href="#ridge" transform="scale(.82)" opacity=".74"/>
      <use href="#ridge" transform="scale(.7)" opacity=".82"/><use href="#ridge" transform="scale(.58)" opacity=".9"/>
      <use href="#ridge" transform="scale(.46)" opacity=".96"/><use href="#ridge" transform="scale(.34)"/>
    </g>
    <g transform="translate(1290 770) rotate(19)">
      <use href="#ridge" transform="scale(1.28)" opacity=".27"/><use href="#ridge" transform="scale(1.16)" opacity=".36"/>
      <use href="#ridge" transform="scale(1.04)" opacity=".45"/><use href="#ridge" transform="scale(.92)" opacity=".56"/>
      <use href="#ridge" transform="scale(.8)" opacity=".68"/><use href="#ridge" transform="scale(.68)" opacity=".8"/>
      <use href="#ridge" transform="scale(.56)" opacity=".9"/><use href="#ridge" transform="scale(.44)" opacity=".98"/>
      <use href="#ridge" transform="scale(.32)"/>
    </g>
    <g transform="translate(1810 190) rotate(-23) scale(.6)">
      <use href="#ridge-small" transform="scale(1.48)" opacity=".3"/><use href="#ridge-small" transform="scale(1.3)" opacity=".42"/>
      <use href="#ridge-small" transform="scale(1.12)" opacity=".56"/><use href="#ridge-small" transform="scale(.94)" opacity=".7"/>
      <use href="#ridge-small" transform="scale(.76)" opacity=".84"/><use href="#ridge-small" transform="scale(.58)" opacity=".96"/>
    </g>
    <g transform="translate(770 930) rotate(8) scale(.48)">
      <use href="#ridge-small" transform="scale(1.5)" opacity=".3"/><use href="#ridge-small" transform="scale(1.32)" opacity=".42"/>
      <use href="#ridge-small" transform="scale(1.14)" opacity=".55"/><use href="#ridge-small" transform="scale(.96)" opacity=".69"/>
      <use href="#ridge-small" transform="scale(.78)" opacity=".82"/><use href="#ridge-small" transform="scale(.6)" opacity=".95"/>
    </g>
  </g>
  <g stroke="#d2efff" stroke-width="1" opacity=".2">
    <path d="M0 815c194-87 330-69 454 20s233 105 355 42 220-194 366-163 270 136 449 96 251-147 296-206"/>
    <path d="M0 847c188-79 317-57 438 29s236 109 366 44 223-190 365-160 276 137 451 95 250-145 300-204"/>
    <path d="M0 879c180-72 303-47 421 39s240 112 376 45 225-186 364-156 282 137 454 94 250-142 305-202"/>
    <path d="M0 911c173-64 289-37 404 48s243 115 386 47 228-182 362-152 288 137 457 93 251-139 311-199"/>
  </g>
</svg>
